<svg width="80" height="77" viewBox="0 0 80 77" fill="none" xmlns="http://www.w3.org/2000/svg">
<g clip-path="url(#clip0)">
<path d="M75.859 38.4012C75.859 47.6035 72.0636 56.4289 65.3077 62.9358C58.5518 69.4428 49.3888 73.0984 39.8345 73.0984C30.2803 73.0984 21.1173 69.4428 14.3614 62.9358C7.60548 56.4289 3.81006 47.6035 3.81006 38.4012C3.81006 29.199 7.60548 20.3736 14.3614 13.8667C21.1173 7.35968 30.2803 3.7041 39.8345 3.7041C49.3888 3.7041 58.5518 7.35968 65.3077 13.8667C72.0636 20.3736 75.859 29.199 75.859 38.4012Z" fill="#204550"/>
<path d="M14.7032 31.6553C16.822 31.6553 18.4394 32.0343 19.5553 32.7923C20.6854 33.5504 21.2504 34.7081 21.2504 36.2656C21.2504 38.2089 20.2687 39.5251 18.3052 40.2143C18.5736 40.5313 18.8773 40.9172 19.2163 41.372C19.5553 41.8268 19.9014 42.323 20.2546 42.8605C20.6077 43.3843 20.9467 43.9287 21.2716 44.4938C21.5965 45.0451 21.8861 45.5895 22.1403 46.127H19.1528C18.8844 45.6308 18.5948 45.1347 18.284 44.6385C17.9733 44.1285 17.6555 43.6392 17.3306 43.1706C17.0198 42.6882 16.709 42.2403 16.3983 41.8268C16.0875 41.3996 15.7979 41.0206 15.5296 40.6898C15.3318 40.7036 15.1623 40.7106 15.021 40.7106C14.8798 40.7106 14.7456 40.7106 14.6185 40.7106H13.326V46.1271H10.6562V32.0069C11.306 31.869 11.9982 31.7794 12.7327 31.7381C13.4672 31.683 14.1241 31.6554 14.7032 31.6554V31.6553ZM14.8939 33.9087C14.3289 33.9087 13.8062 33.9294 13.326 33.9708V38.6017H14.4913C15.1411 38.6017 15.7132 38.5673 16.2076 38.4983C16.702 38.4294 17.1116 38.3054 17.4365 38.1262C17.7755 37.947 18.0298 37.7058 18.1993 37.4026C18.3688 37.0994 18.4535 36.7135 18.4535 36.2449C18.4535 35.8038 18.3688 35.4317 18.1993 35.1285C18.0298 34.8253 17.7826 34.5841 17.4577 34.4049C17.1469 34.2257 16.7726 34.1017 16.3347 34.0328C15.8968 33.9501 15.4166 33.9087 14.8939 33.9087Z" fill="white"/>
<path d="M27.7895 44.1837C28.7501 44.1837 29.4493 44.0252 29.8872 43.7082C30.3251 43.3912 30.544 42.9433 30.544 42.3644C30.544 42.0198 30.4663 41.7235 30.311 41.4754C30.1697 41.2273 29.9578 41.0068 29.6753 40.8138C29.4069 40.6071 29.075 40.421 28.6794 40.2556C28.2839 40.0765 27.8319 39.9042 27.3234 39.7388C26.8149 39.5596 26.3205 39.3667 25.8402 39.1599C25.3741 38.9394 24.9574 38.6706 24.5901 38.3537C24.237 38.0367 23.9474 37.6576 23.7214 37.2166C23.5095 36.7755 23.4036 36.2449 23.4036 35.6247C23.4036 34.3291 23.8626 33.3161 24.7808 32.5856C25.699 31.8414 26.9491 31.4692 28.5311 31.4692C29.4493 31.4692 30.2615 31.5726 30.9678 31.7793C31.6882 31.9723 32.2532 32.1859 32.6628 32.4202L31.8365 34.529C31.3562 34.2671 30.8265 34.0673 30.2474 33.9294C29.6824 33.7916 29.0961 33.7227 28.4888 33.7227C27.7683 33.7227 27.2033 33.8674 26.7937 34.1568C26.3982 34.4463 26.2004 34.8529 26.2004 35.3766C26.2004 35.6936 26.264 35.9692 26.3911 36.2036C26.5324 36.4241 26.7231 36.6239 26.9632 36.8031C27.2175 36.9823 27.507 37.1477 27.8319 37.2993C28.1709 37.4509 28.5382 37.5956 28.9337 37.7334C29.6259 37.9815 30.2403 38.2365 30.7771 38.4984C31.328 38.7464 31.7871 39.0497 32.1543 39.408C32.5357 39.7526 32.8253 40.1661 33.023 40.6484C33.2208 41.1171 33.3197 41.689 33.3197 42.3644C33.3197 43.6599 32.8465 44.6661 31.9001 45.3828C30.9678 46.0857 29.5976 46.4371 27.7895 46.4371C27.1821 46.4371 26.6242 46.3958 26.1157 46.3131C25.6213 46.2442 25.1763 46.1546 24.7808 46.0444C24.3994 45.9341 24.0675 45.8238 23.785 45.7136C23.5024 45.5895 23.2764 45.4793 23.1069 45.3828L23.8909 43.2534C24.2723 43.4601 24.7879 43.6669 25.4376 43.8736C26.0874 44.0803 26.8714 44.1837 27.7895 44.1837L27.7895 44.1837Z" fill="white"/>
<path d="M40.6949 38.8291C40.6949 39.2013 40.6242 39.5596 40.483 39.9042C40.3558 40.235 40.1651 40.5313 39.9109 40.7932C39.6566 41.0412 39.3529 41.2411 38.9998 41.3927C38.6467 41.5443 38.2511 41.6201 37.8132 41.6201C37.3612 41.6201 36.9587 41.5443 36.6055 41.3927C36.2524 41.2411 35.9487 41.0412 35.6944 40.7932C35.4543 40.5313 35.2636 40.235 35.1223 39.9042C34.9952 39.5596 34.9316 39.2013 34.9316 38.8291C34.9316 38.457 34.9952 38.1055 35.1223 37.7748C35.2636 37.4302 35.4543 37.1339 35.6944 36.8858C35.9487 36.6377 36.2524 36.4379 36.6055 36.2862C36.9587 36.1346 37.3612 36.0588 37.8132 36.0588C38.2511 36.0588 38.6467 36.1346 38.9998 36.2862C39.3529 36.4379 39.6566 36.6377 39.9109 36.8858C40.1651 37.1339 40.3558 37.4302 40.483 37.7748C40.6242 38.1055 40.6949 38.457 40.6949 38.8291Z" fill="white"/>
<path d="M46.1429 43.9769C46.2982 43.9908 46.5031 44.0046 46.7573 44.0183C47.0116 44.0183 47.3577 44.0183 47.7956 44.0183C49.5895 44.0183 50.9244 43.5772 51.8001 42.6951C52.6901 41.7993 53.135 40.552 53.135 38.9532C53.135 37.3268 52.7042 36.0795 51.8425 35.2112C50.9809 34.3429 49.646 33.9087 47.8379 33.9087C47.0469 33.9087 46.4819 33.9294 46.1429 33.9708V43.9769ZM55.9319 38.9532C55.9319 40.1936 55.7341 41.2755 55.3386 42.199C54.9431 43.1086 54.3781 43.8736 53.6435 44.4938C52.9231 45.1002 52.0473 45.555 51.0162 45.8583C49.9991 46.1477 48.8691 46.2924 47.6261 46.2924C47.0328 46.2924 46.3618 46.2649 45.6132 46.2097C44.8645 46.1684 44.1512 46.0719 43.4731 45.9203V32.0067C44.1512 31.8551 44.8716 31.7587 45.6344 31.7173C46.3971 31.6759 47.0752 31.6553 47.6684 31.6553C48.8974 31.6553 50.0203 31.8 51.0374 32.0894C52.0544 32.3651 52.9231 32.8061 53.6435 33.4126C54.3781 34.0052 54.9431 34.7632 55.3386 35.6867C55.7341 36.5963 55.9319 37.6852 55.9319 38.9532V38.9532Z" fill="white"/>
<path d="M65.3938 46.4371C64.292 46.4371 63.3032 46.2717 62.4274 45.941C61.5516 45.6102 60.8101 45.1278 60.2027 44.4938C59.5953 43.846 59.1291 43.0604 58.8042 42.137C58.4793 41.2135 58.3169 40.1523 58.3169 38.9532C58.3169 37.7541 58.5005 36.6928 58.8678 35.7694C59.2492 34.846 59.7648 34.0673 60.4145 33.4333C61.0643 32.7855 61.8271 32.2962 62.7029 31.9654C63.5787 31.6346 64.518 31.4692 65.5209 31.4692C66.1283 31.4692 66.6792 31.5175 67.1736 31.614C67.668 31.6966 68.0988 31.7931 68.4661 31.9034C68.8333 32.0137 69.137 32.1308 69.3772 32.2549C69.6173 32.3789 69.7868 32.4685 69.8857 32.5236L69.1017 34.653C68.7627 34.4463 68.2754 34.2533 67.6397 34.0742C67.0182 33.8812 66.3402 33.7847 65.6057 33.7847C64.97 33.7847 64.3767 33.895 63.8259 34.1155C63.275 34.3222 62.7947 34.6392 62.385 35.0665C61.9895 35.4938 61.6788 36.0313 61.4528 36.6791C61.2268 37.3268 61.1137 38.078 61.1137 38.9325C61.1137 39.6905 61.1985 40.3866 61.368 41.0206C61.5516 41.6546 61.8271 42.2059 62.1944 42.6745C62.5616 43.1293 63.0278 43.4877 63.5928 43.7495C64.1578 43.9976 64.8358 44.1217 65.6269 44.1217C66.5733 44.1217 67.3431 44.0321 67.9364 43.8529C68.5297 43.6599 68.9887 43.4808 69.3136 43.3154L70.034 45.4448C69.8645 45.555 69.6314 45.6653 69.3348 45.7756C69.0523 45.8858 68.7133 45.9961 68.3178 46.1064C67.9223 46.2028 67.4773 46.2786 66.9829 46.3338C66.4885 46.4027 65.9588 46.4371 65.3938 46.4371L65.3938 46.4371Z" fill="white"/>
</g>
<defs>
<clipPath id="clip0">
<rect width="80" height="77" fill="white"/>
</clipPath>
</defs>
</svg>
