<svg width="267" height="77" viewBox="0 0 267 77" fill="none" xmlns="http://www.w3.org/2000/svg">
<g clip-path="url(#clip0)">
<path d="M75.8593 38.4012C75.8593 47.6035 72.0638 56.4289 65.3079 62.9358C58.552 69.4428 49.3891 73.0984 39.8348 73.0984C30.2805 73.0984 21.1175 69.4428 14.3616 62.9358C7.60573 56.4289 3.8103 47.6035 3.8103 38.4012C3.8103 29.199 7.60573 20.3736 14.3616 13.8667C21.1175 7.35968 30.2805 3.7041 39.8348 3.7041C49.3891 3.7041 58.552 7.35968 65.3079 13.8667C72.0638 20.3736 75.8593 29.199 75.8593 38.4012Z" fill="#204550"/>
<path d="M14.703 31.6553C16.8218 31.6553 18.4392 32.0343 19.5551 32.7923C20.6851 33.5504 21.2502 34.7081 21.2502 36.2656C21.2502 38.2089 20.2684 39.5251 18.305 40.2143C18.5734 40.5313 18.8771 40.9172 19.2161 41.372C19.5551 41.8268 19.9012 42.323 20.2543 42.8605C20.6074 43.3843 20.9465 43.9287 21.2713 44.4938C21.5962 45.0451 21.8858 45.5895 22.1401 46.127H19.1525C18.8841 45.6308 18.5946 45.1347 18.2838 44.6385C17.973 44.1285 17.6552 43.6392 17.3303 43.1706C17.0196 42.6882 16.7088 42.2403 16.398 41.8268C16.0873 41.3996 15.7977 41.0206 15.5293 40.6898C15.3316 40.7036 15.1621 40.7106 15.0208 40.7106C14.8795 40.7106 14.7453 40.7106 14.6182 40.7106H13.3257V46.1271H10.656V32.0069C11.3058 31.869 11.9979 31.7794 12.7325 31.7381C13.467 31.683 14.1238 31.6554 14.703 31.6554V31.6553ZM14.8937 33.9087C14.3286 33.9087 13.806 33.9294 13.3257 33.9708V38.6017H14.4911C15.1409 38.6017 15.7129 38.5673 16.2073 38.4983C16.7017 38.4294 17.1114 38.3054 17.4363 38.1262C17.7753 37.947 18.0295 37.7058 18.199 37.4026C18.3685 37.0994 18.4533 36.7135 18.4533 36.2449C18.4533 35.8038 18.3685 35.4317 18.199 35.1285C18.0295 34.8253 17.7823 34.5841 17.4575 34.4049C17.1467 34.2257 16.7724 34.1017 16.3345 34.0328C15.8966 33.9501 15.4163 33.9087 14.8937 33.9087Z" fill="white"/>
<path d="M27.7893 44.1837C28.7498 44.1837 29.449 44.0252 29.8869 43.7082C30.3248 43.3912 30.5438 42.9433 30.5438 42.3644C30.5438 42.0198 30.4661 41.7235 30.3107 41.4754C30.1694 41.2273 29.9576 41.0068 29.6751 40.8138C29.4067 40.6071 29.0747 40.421 28.6792 40.2556C28.2837 40.0765 27.8317 39.9042 27.3232 39.7388C26.8146 39.5596 26.3202 39.3667 25.84 39.1599C25.3738 38.9394 24.9571 38.6706 24.5899 38.3537C24.2367 38.0367 23.9472 37.6576 23.7211 37.2166C23.5093 36.7755 23.4033 36.2449 23.4033 35.6247C23.4033 34.3291 23.8624 33.3161 24.7806 32.5856C25.6987 31.8414 26.9488 31.4692 28.5309 31.4692C29.449 31.4692 30.2613 31.5726 30.9675 31.7793C31.6879 31.9723 32.253 32.1859 32.6626 32.4202L31.8363 34.529C31.356 34.2671 30.8263 34.0673 30.2471 33.9294C29.6821 33.7916 29.0959 33.7227 28.4885 33.7227C27.7681 33.7227 27.2031 33.8674 26.7934 34.1568C26.3979 34.4463 26.2002 34.8529 26.2002 35.3766C26.2002 35.6936 26.2637 35.9692 26.3909 36.2036C26.5321 36.4241 26.7228 36.6239 26.963 36.8031C27.2172 36.9823 27.5068 37.1477 27.8317 37.2993C28.1707 37.4509 28.5379 37.5956 28.9335 37.7334C29.6256 37.9815 30.2401 38.2365 30.7768 38.4984C31.3277 38.7464 31.7868 39.0497 32.1541 39.408C32.5355 39.7526 32.825 40.1661 33.0228 40.6484C33.2206 41.1171 33.3194 41.689 33.3194 42.3644C33.3194 43.6599 32.8462 44.6661 31.8998 45.3828C30.9675 46.0857 29.5974 46.4371 27.7893 46.4371C27.1819 46.4371 26.6239 46.3958 26.1154 46.3131C25.621 46.2442 25.1761 46.1546 24.7806 46.0444C24.3992 45.9341 24.0672 45.8238 23.7847 45.7136C23.5022 45.5895 23.2762 45.4793 23.1067 45.3828L23.8907 43.2534C24.272 43.4601 24.7876 43.6669 25.4374 43.8736C26.0872 44.0803 26.8711 44.1837 27.7893 44.1837L27.7893 44.1837Z" fill="white"/>
<path d="M40.6944 38.8291C40.6944 39.2013 40.6238 39.5596 40.4825 39.9042C40.3554 40.235 40.1647 40.5313 39.9104 40.7932C39.6561 41.0412 39.3524 41.2411 38.9993 41.3927C38.6462 41.5443 38.2506 41.6201 37.8128 41.6201C37.3607 41.6201 36.9582 41.5443 36.605 41.3927C36.2519 41.2411 35.9482 41.0412 35.6939 40.7932C35.4538 40.5313 35.2631 40.235 35.1218 39.9042C34.9947 39.5596 34.9312 39.2013 34.9312 38.8291C34.9312 38.457 34.9947 38.1055 35.1218 37.7748C35.2631 37.4302 35.4538 37.1339 35.6939 36.8858C35.9482 36.6377 36.2519 36.4379 36.605 36.2862C36.9582 36.1346 37.3607 36.0588 37.8128 36.0588C38.2506 36.0588 38.6462 36.1346 38.9993 36.2862C39.3524 36.4379 39.6561 36.6377 39.9104 36.8858C40.1647 37.1339 40.3554 37.4302 40.4825 37.7748C40.6238 38.1055 40.6944 38.457 40.6944 38.8291Z" fill="white"/>
<path d="M46.1429 43.9769C46.2982 43.9908 46.5031 44.0046 46.7573 44.0183C47.0116 44.0183 47.3577 44.0183 47.7956 44.0183C49.5895 44.0183 50.9244 43.5772 51.8001 42.6951C52.6901 41.7993 53.135 40.552 53.135 38.9532C53.135 37.3268 52.7042 36.0795 51.8425 35.2112C50.9809 34.3429 49.646 33.9087 47.8379 33.9087C47.0469 33.9087 46.4819 33.9294 46.1429 33.9708V43.9769ZM55.9319 38.9532C55.9319 40.1936 55.7341 41.2755 55.3386 42.199C54.9431 43.1086 54.3781 43.8736 53.6435 44.4938C52.9231 45.1002 52.0473 45.555 51.0162 45.8583C49.9991 46.1477 48.8691 46.2924 47.6261 46.2924C47.0328 46.2924 46.3618 46.2649 45.6132 46.2097C44.8645 46.1684 44.1512 46.0719 43.4731 45.9203V32.0067C44.1512 31.8551 44.8716 31.7587 45.6344 31.7173C46.3971 31.6759 47.0752 31.6553 47.6684 31.6553C48.8974 31.6553 50.0203 31.8 51.0374 32.0894C52.0544 32.3651 52.9231 32.8061 53.6435 33.4126C54.3781 34.0052 54.9431 34.7632 55.3386 35.6867C55.7341 36.5963 55.9319 37.6852 55.9319 38.9532V38.9532Z" fill="white"/>
<path d="M65.3938 46.4371C64.292 46.4371 63.3032 46.2717 62.4274 45.941C61.5516 45.6102 60.8101 45.1278 60.2027 44.4938C59.5953 43.846 59.1291 43.0604 58.8042 42.137C58.4793 41.2135 58.3169 40.1523 58.3169 38.9532C58.3169 37.7541 58.5005 36.6928 58.8678 35.7694C59.2492 34.846 59.7648 34.0673 60.4145 33.4333C61.0643 32.7855 61.8271 32.2962 62.7029 31.9654C63.5787 31.6346 64.518 31.4692 65.5209 31.4692C66.1283 31.4692 66.6792 31.5175 67.1736 31.614C67.668 31.6966 68.0988 31.7931 68.4661 31.9034C68.8333 32.0137 69.137 32.1308 69.3772 32.2549C69.6173 32.3789 69.7868 32.4685 69.8857 32.5236L69.1017 34.653C68.7627 34.4463 68.2754 34.2533 67.6397 34.0742C67.0182 33.8812 66.3402 33.7847 65.6057 33.7847C64.97 33.7847 64.3767 33.895 63.8259 34.1155C63.275 34.3222 62.7947 34.6392 62.385 35.0665C61.9895 35.4938 61.6788 36.0313 61.4528 36.6791C61.2268 37.3268 61.1137 38.078 61.1137 38.9325C61.1137 39.6905 61.1985 40.3866 61.368 41.0206C61.5516 41.6546 61.8271 42.2059 62.1944 42.6745C62.5616 43.1293 63.0278 43.4877 63.5928 43.7495C64.1578 43.9976 64.8358 44.1217 65.6269 44.1217C66.5733 44.1217 67.3431 44.0321 67.9364 43.8529C68.5297 43.6599 68.9887 43.4808 69.3136 43.3154L70.034 45.4448C69.8645 45.555 69.6314 45.6653 69.3348 45.7756C69.0523 45.8858 68.7133 45.9961 68.3178 46.1064C67.9223 46.2028 67.4773 46.2786 66.9829 46.3338C66.4885 46.4027 65.9588 46.4371 65.3938 46.4371L65.3938 46.4371Z" fill="white"/>
</g>
<path d="M92.848 32.2H98.824C102.808 32.2 104.8 34.008 104.8 37.624C104.8 39.496 104.296 40.888 103.288 41.8C102.28 42.712 100.816 43.168 98.896 43.168H95.92V49H92.848V32.2ZM98.536 40.6C99.592 40.6 100.376 40.36 100.888 39.88C101.416 39.4 101.68 38.664 101.68 37.672C101.68 36.68 101.416 35.952 100.888 35.488C100.36 35.008 99.552 34.768 98.464 34.768H95.92V40.6H98.536ZM107.145 32.2H113.289C115.081 32.2 116.489 32.632 117.513 33.496C118.553 34.344 119.073 35.608 119.073 37.288C119.073 38.456 118.825 39.416 118.329 40.168C117.833 40.904 117.129 41.496 116.217 41.944L120.009 49H116.577L113.337 42.76H113.217H110.217V49H107.145V32.2ZM112.473 40.192C114.729 40.192 115.857 39.28 115.857 37.456C115.857 36.576 115.601 35.912 115.089 35.464C114.577 35 113.745 34.768 112.593 34.768H110.217V40.192H112.473ZM129.44 49.336C127.856 49.336 126.432 48.976 125.168 48.256C123.92 47.52 122.936 46.496 122.216 45.184C121.512 43.856 121.16 42.328 121.16 40.6C121.16 38.872 121.512 37.352 122.216 36.04C122.936 34.712 123.92 33.688 125.168 32.968C126.432 32.232 127.856 31.864 129.44 31.864C131.024 31.864 132.44 32.232 133.688 32.968C134.952 33.688 135.936 34.712 136.64 36.04C137.36 37.352 137.72 38.872 137.72 40.6C137.72 42.328 137.36 43.856 136.64 45.184C135.936 46.496 134.952 47.52 133.688 48.256C132.44 48.976 131.024 49.336 129.44 49.336ZM129.44 46.36C131.072 46.36 132.32 45.832 133.184 44.776C134.064 43.72 134.504 42.328 134.504 40.6C134.504 38.872 134.064 37.48 133.184 36.424C132.32 35.368 131.072 34.84 129.44 34.84C127.808 34.84 126.552 35.368 125.672 36.424C124.808 37.48 124.376 38.872 124.376 40.6C124.376 42.328 124.808 43.72 125.672 44.776C126.552 45.832 127.808 46.36 129.44 46.36ZM138.459 50.488C139.163 50.488 139.659 50.336 139.947 50.032C140.251 49.728 140.403 49.192 140.403 48.424V32.2H143.475V49.096C143.475 50.504 143.139 51.528 142.467 52.168C141.795 52.808 140.835 53.128 139.587 53.128H138.723L138.459 50.488ZM147.176 32.2H157.928V35.176H150.32V38.752H156.224V41.728H150.32V46.024H158.168V49H147.176V32.2ZM168.214 49.336C166.518 49.336 165.014 48.976 163.702 48.256C162.406 47.536 161.398 46.52 160.678 45.208C159.958 43.88 159.598 42.344 159.598 40.6C159.598 38.872 159.966 37.352 160.702 36.04C161.454 34.712 162.486 33.688 163.798 32.968C165.126 32.232 166.63 31.864 168.31 31.864C169.926 31.864 171.374 32.192 172.654 32.848L172.318 35.776C171.63 35.472 170.966 35.24 170.326 35.08C169.702 34.904 169.022 34.816 168.286 34.816C166.574 34.816 165.254 35.344 164.326 36.4C163.414 37.456 162.958 38.856 162.958 40.6C162.958 42.344 163.406 43.744 164.302 44.8C165.214 45.856 166.518 46.384 168.214 46.384C168.966 46.384 169.654 46.304 170.278 46.144C170.918 45.984 171.598 45.744 172.318 45.424L172.654 48.352C171.262 49.008 169.782 49.336 168.214 49.336ZM178.495 35.176H173.743V32.2H186.319V35.176H181.567V49H178.495V35.176ZM193.911 32.2H196.983V38.848H204.663V32.2H207.735V49H204.663V41.728H196.983V49H193.911V32.2ZM218.714 49.336C217.13 49.336 215.706 48.976 214.442 48.256C213.194 47.52 212.21 46.496 211.49 45.184C210.786 43.856 210.434 42.328 210.434 40.6C210.434 38.872 210.786 37.352 211.49 36.04C212.21 34.712 213.194 33.688 214.442 32.968C215.706 32.232 217.13 31.864 218.714 31.864C220.298 31.864 221.714 32.232 222.962 32.968C224.226 33.688 225.21 34.712 225.914 36.04C226.634 37.352 226.994 38.872 226.994 40.6C226.994 42.328 226.634 43.856 225.914 45.184C225.21 46.496 224.226 47.52 222.962 48.256C221.714 48.976 220.298 49.336 218.714 49.336ZM218.714 46.36C220.346 46.36 221.594 45.832 222.458 44.776C223.338 43.72 223.778 42.328 223.778 40.6C223.778 38.872 223.338 37.48 222.458 36.424C221.594 35.368 220.346 34.84 218.714 34.84C217.082 34.84 215.826 35.368 214.946 36.424C214.082 37.48 213.65 38.872 213.65 40.6C213.65 42.328 214.082 43.72 214.946 44.776C215.826 45.832 217.082 46.36 218.714 46.36ZM232.635 35.176H227.883V32.2H240.459V35.176H235.707V49H232.635V35.176ZM242.661 32.2H253.413V35.176H245.805V38.752H251.709V41.728H245.805V46.024H253.653V49H242.661V32.2ZM256.301 32.2H259.373V46.264H266.285V49H256.301V32.2Z" fill="white"/>
<defs>
<clipPath id="clip0">
<rect width="80" height="77" fill="white"/>
</clipPath>
</defs>
</svg>
